<?xml version="1.0" standalone="no"?>
<!DOCTYPE svg PUBLIC "-//W3C//DTD SVG 1.1//EN" "http://www.w3.org/Graphics/SVG/1.1/DTD/svg11.dtd" >
<svg xmlns="http://www.w3.org/2000/svg" xmlns:xlink="http://www.w3.org/1999/xlink" version="1.1">
<metadata>
Created by FontForge 20170731 at Sun Nov 26 11:46:36 2023
 By Aleksey,,,
Copyright (c) 2017 by Jacob Debono.
</metadata>
<defs>
<font id="Minecraft-Italic" horiz-adv-x="1228" >
  <font-face 
    font-family="Minecraft"
    font-weight="400"
    font-style="italic"
    font-stretch="normal"
    units-per-em="2048"
    panose-1="0 0 5 0 0 0 0 0 0 0"
    ascent="1638"
    descent="-410"
    x-height="1024"
    cap-height="1434"
    bbox="-72 -410 1890 1434"
    underline-thickness="102"
    underline-position="-307"
    unicode-range="U+0020-2666"
  />
<missing-glyph horiz-adv-x="204" 
 />
    <glyph glyph-name=".notdef" horiz-adv-x="204" 
 />
    <glyph glyph-name=".null" horiz-adv-x="0" 
 />
    <glyph glyph-name="nonmarkingreturn" horiz-adv-x="682" 
 />
    <glyph glyph-name="space" unicode=" " horiz-adv-x="819" 
 />
    <glyph glyph-name="exclam" unicode="!" horiz-adv-x="409" 
d="M457 1434l-181 -1024h-204l180 1024h205zM37 205h205l-37 -205h-205z" />
    <glyph glyph-name="quotedbl" unicode="&#x22;" horiz-adv-x="1024" 
d="M590 1024h-205l72 410h205zM1071 1434l-72 -410h-204l71 410h205zM180 1024h205l-35 -205h-205zM590 1024h205l-35 -205h-205z" />
    <glyph glyph-name="numbersign" unicode="#" 
d="M965 819l-37 -205h205l-37 -204h-205l-72 -410h-205l72 410h-205l-71 -410h-205l71 410h-204l37 204h204l37 205h-205l35 205h205l72 410h205l-72 -410h205l71 410h205l-72 -410h205l-35 -205h-204zM760 819h-205l-37 -205h205z" />
    <glyph glyph-name="dollar" unicode="$" 
d="M422 1229h205l35 205h204l-35 -205h410l-37 -205h-819zM385 1024l-35 -205h-205l35 205h205zM350 819h615l-37 -205h-615zM891 410l37 204h205l-37 -204h-205zM856 205h-205l-37 -205h-204l36 205h-409l35 205h819z" />
    <glyph glyph-name="percent" unicode="%" 
d="M180 1024l72 410h205l-72 -410h-205zM1276 1434l-35 -205h-205l35 205h205zM1036 1229l-71 -410h-205l71 410h205zM555 819h205l-37 -205h-205zM518 614l-72 -409h-204l71 409h205zM1096 410l-72 -410h-205l72 410h205zM37 205h205l-37 -205h-205z" />
    <glyph glyph-name="ampersand" unicode="&#x26;" 
d="M831 1229h-204l35 205h204zM627 1229l-37 -205h-205l37 205h205zM795 1024l36 205h205l-37 -205h-204zM856 205h-205l35 205h-205l37 204h-205l37 205h205l35 205h205l-72 -410h205zM1133 614h-205l37 205h204zM242 205h-205l72 409h204zM651 205l-37 -205h-409l37 205
h409zM819 0l37 205h205l-37 -205h-205z" />
    <glyph glyph-name="quotesingle" unicode="'" horiz-adv-x="614" 
d="M662 1434l-72 -410h-205l72 410h205zM180 1024h205l-35 -205h-205z" />
    <glyph glyph-name="parenleft" unicode="(" horiz-adv-x="1024" 
d="M627 1229l35 205h409l-35 -205h-409zM590 1024h-205l37 205h205zM72 410l108 614h205l-109 -614h-204zM242 205l34 205h205l-35 -205h-204zM446 205h410l-37 -205h-409z" />
    <glyph glyph-name="parenright" unicode=")" horiz-adv-x="1024" 
d="M627 1229h-410l35 205h410zM831 1229l-36 -205h-205l37 205h204zM999 1024l-108 -614h-205l109 614h204zM481 410h205l-35 -205h-205zM446 205l-36 -205h-410l37 205h409z" />
    <glyph glyph-name="asterisk" unicode="*" horiz-adv-x="1024" 
d="M385 1024l-35 -205h-205l35 205h205zM965 819h-205l35 205h204zM723 614h-410l37 205h410zM109 614h204l-37 -204h-204zM686 410l37 204h205l-37 -204h-205z" />
    <glyph glyph-name="plus" unicode="+" 
d="M1133 614h-410l-72 -409h-205l72 409h-409l36 205h410l72 410h204l-71 -410h409z" />
    <glyph glyph-name="comma" unicode="," horiz-adv-x="409" 
d="M276 410l-108 -615h-205l109 615h204z" />
    <glyph glyph-name="hyphen" unicode="-" 
d="M1133 614h-1024l36 205h1024z" />
    <glyph glyph-name="period" unicode="." horiz-adv-x="409" 
d="M276 410l-71 -410h-205l72 410h204z" />
    <glyph glyph-name="slash" unicode="/" 
d="M1276 1434l-35 -205h-205l35 205h205zM1036 1229l-71 -410h-205l71 410h205zM555 819h205l-37 -205h-205zM518 614l-72 -409h-204l71 409h205zM37 205h205l-37 -205h-205z" />
    <glyph glyph-name="zero" unicode="0" 
d="M457 1434h614l-35 -205h-614zM276 410l-34 -205h-205l180 1024h205l-109 -615h205l-37 -204h-205zM1241 1229l-180 -1024h-205l109 614h-205l35 205h204l37 205h205zM555 819h205l-37 -205h-205zM819 0h-614l37 205h614z" />
    <glyph glyph-name="one" unicode="1" 
d="M1024 0h-1024l37 205h409l144 819h-205l37 205h205l35 205h204l-215 -1229h410z" />
    <glyph glyph-name="two" unicode="2" 
d="M1036 1229h-614l35 205h614zM217 1229h205l-37 -205h-205zM1241 1229l-72 -410h-204l71 410h205zM965 819l-37 -205h-410l37 205h410zM313 614h205l-37 -204h-205zM276 410l-34 -205h614l35 205h205l-72 -410h-1024l72 410h204z" />
    <glyph glyph-name="three" unicode="3" 
d="M1036 1229h-614l35 205h614zM217 1229h205l-37 -205h-205zM1241 1229l-72 -410h-204l71 410h205zM965 819l-37 -205h-410l37 205h410zM928 614h205l-72 -409h-205zM276 410l-34 -205h-205l35 205h204zM819 0h-614l37 205h614z" />
    <glyph glyph-name="four" unicode="4" 
d="M1024 0h-205l72 410h-819l73 409h205l-37 -205h615l108 615h-205l35 205h410zM795 1024h-205l37 205h204zM555 819h-205l35 205h205z" />
    <glyph glyph-name="five" unicode="5" 
d="M385 1024h614l-34 -205h-820l107 615h1024l-35 -205h-819zM1169 819l-108 -614h-205l109 614h204zM276 410l-34 -205h-205l35 205h204zM819 0h-614l37 205h614z" />
    <glyph glyph-name="six" unicode="6" 
d="M627 1229l35 205h409l-35 -205h-409zM590 1024h-205l37 205h205zM242 205h-205l143 819h205l-35 -205h615l-37 -205h-615zM1133 614l-72 -409h-205l72 409h205zM819 0h-614l37 205h614z" />
    <glyph glyph-name="seven" unicode="7" 
d="M1169 819h-204l71 410h-614l-37 -205h-205l72 410h1024zM760 819h205l-37 -205h-205zM723 614l-109 -614h-204l108 614h205z" />
    <glyph glyph-name="eight" unicode="8" 
d="M457 1434h614l-35 -205h-614zM350 819h-205l72 410h205zM1241 1229l-72 -410h-204l71 410h205zM928 614h-615l37 205h615zM242 205h-205l72 409h204zM928 614h205l-72 -409h-205zM819 0h-614l37 205h614z" />
    <glyph glyph-name="nine" unicode="9" 
d="M457 1434h614l-35 -205h-614zM350 819h-205l72 410h205zM1241 1229l-145 -819h-205l37 204h-615l37 205h615l71 410h205zM686 410h205l-35 -205h-205zM651 205l-37 -205h-409l37 205h409z" />
    <glyph glyph-name="colon" unicode=":" horiz-adv-x="409" 
d="M422 1229l-72 -410h-205l72 410h205zM276 410l-71 -410h-205l72 410h204z" />
    <glyph glyph-name="semicolon" unicode=";" horiz-adv-x="409" 
d="M422 1229l-72 -410h-205l72 410h205zM276 410l-108 -615h-205l109 615h204z" />
    <glyph glyph-name="less" unicode="&#x3c;" horiz-adv-x="1024" 
d="M866 1434h205l-35 -205h-205zM627 1229h204l-36 -205h-205zM385 1024h205l-35 -205h-205zM145 819h205l-37 -205h-204zM313 614h205l-37 -204h-205zM481 410h205l-35 -205h-205zM651 205h205l-37 -205h-205z" />
    <glyph glyph-name="equal" unicode="=" 
d="M1169 819h-1024l35 205h1024zM1061 205h-1024l35 205h1024z" />
    <glyph glyph-name="greater" unicode="&#x3e;" horiz-adv-x="1024" 
d="M252 1434h205l-35 -205h-205zM422 1229h205l-37 -205h-205zM590 1024h205l-35 -205h-205zM760 819h205l-37 -205h-205zM518 614h205l-37 -204h-205zM276 410h205l-35 -205h-204zM37 205h205l-37 -205h-205z" />
    <glyph glyph-name="question" unicode="?" 
d="M1036 1229h-614l35 205h614zM217 1229h205l-37 -205h-205zM1241 1229l-72 -410h-204l71 410h205zM760 819h205l-37 -205h-205zM518 614h205l-37 -204h-205zM446 205h205l-37 -205h-204z" />
    <glyph glyph-name="at" unicode="@" horiz-adv-x="1433" 
d="M1241 1229h-819l35 205h819zM422 1229l-180 -1024h-205l180 1024h205zM1446 1229l-146 -819h-819l109 614h409l-71 -410h205l108 615h205zM242 205h819l-37 -205h-819z" />
    <glyph glyph-name="A" unicode="A" 
d="M457 1434h614l-35 -205h-614zM1241 1229l-217 -1229h-205l146 819h-615l-145 -819h-205l217 1229h205l-37 -205h614l37 205h205z" />
    <glyph glyph-name="B" unicode="B" 
d="M965 819h-615l-108 -614h614l-37 -205h-819l252 1434h819l-35 -205h-614l-37 -205h614zM999 1024l37 205h205l-37 -205h-205zM1169 819l-108 -614h-205l109 614h204z" />
    <glyph glyph-name="C" unicode="C" 
d="M1036 1229h-614l35 205h614zM422 1229l-180 -1024h-205l180 1024h205zM999 1024l37 205h205l-37 -205h-205zM1061 205h-205l35 205h205zM242 205h614l-37 -205h-614z" />
    <glyph glyph-name="D" unicode="D" 
d="M819 0h-819l252 1434h819l-35 -205h-614l-180 -1024h614zM1241 1229l-180 -1024h-205l180 1024h205z" />
    <glyph glyph-name="E" unicode="E" 
d="M385 1024h410l-35 -205h-410l-108 -614h819l-37 -205h-1024l252 1434h1024l-35 -205h-819z" />
    <glyph glyph-name="F" unicode="F" 
d="M1241 1229h-819l-37 -205h410l-35 -205h-410l-145 -819h-205l252 1434h1024z" />
    <glyph glyph-name="G" unicode="G" 
d="M457 1434h819l-35 -205h-819zM37 205l180 1024h205l-180 -1024h-205zM856 205l109 614h-205l35 205h409l-143 -819h-205zM242 205h614l-37 -205h-614z" />
    <glyph glyph-name="H" unicode="H" 
d="M1276 1434l-252 -1434h-205l146 819h-615l-145 -819h-205l252 1434h205l-72 -410h614l72 410h205z" />
    <glyph glyph-name="I" unicode="I" horiz-adv-x="819" 
d="M651 205l-37 -205h-614l37 205h205l180 1024h-205l35 205h614l-35 -205h-204l-181 -1024h205z" />
    <glyph glyph-name="J" unicode="J" 
d="M1276 1434l-215 -1229h-205l215 1229h205zM276 410l-34 -205h-205l35 205h204zM819 0h-614l37 205h614z" />
    <glyph glyph-name="K" unicode="K" 
d="M760 819h-410l-145 -819h-205l252 1434h205l-72 -410h410zM1241 1229h-205l35 205h205zM999 1024h-204l36 205h205zM723 614l37 205h205l-37 -205h-205zM1133 614l-109 -614h-205l109 614h205z" />
    <glyph glyph-name="L" unicode="L" 
d="M1024 0h-1024l252 1434h205l-215 -1229h819z" />
    <glyph glyph-name="M" unicode="M" 
d="M627 1229l-37 -205h-205l-180 -1024h-205l252 1434h205l-35 -205h205zM1276 1434l-252 -1434h-205l180 1024h-204l36 205h205l35 205h205zM590 1024h205l-35 -205h-205z" />
    <glyph glyph-name="N" unicode="N" 
d="M627 1229l-37 -205h-205l-180 -1024h-205l252 1434h205l-35 -205h205zM1276 1434l-252 -1434h-205l109 614h-205l37 205h205l106 615h205zM795 1024l-35 -205h-205l35 205h205z" />
    <glyph glyph-name="O" unicode="O" 
d="M457 1434h614l-35 -205h-614zM37 205l180 1024h205l-180 -1024h-205zM1241 1229l-180 -1024h-205l180 1024h205zM819 0h-614l37 205h614z" />
    <glyph glyph-name="P" unicode="P" 
d="M965 819h-615l-145 -819h-205l252 1434h819l-35 -205h-614l-37 -205h614zM1241 1229l-37 -205h-205l37 205h205z" />
    <glyph glyph-name="Q" unicode="Q" 
d="M457 1434h614l-35 -205h-614zM37 205l180 1024h205l-180 -1024h-205zM1241 1229l-145 -819h-205l145 819h205zM686 410h205l-35 -205h-205zM651 205l-37 -205h-409l37 205h409zM819 0l37 205h205l-37 -205h-205z" />
    <glyph glyph-name="R" unicode="R" 
d="M965 819h-615l-145 -819h-205l252 1434h819l-35 -205h-614l-37 -205h614zM999 1024l37 205h205l-37 -205h-205zM1169 819l-145 -819h-205l146 819h204z" />
    <glyph glyph-name="S" unicode="S" 
d="M457 1434h819l-35 -205h-819zM422 1229l-37 -205h-205l37 205h205zM385 1024h614l-34 -205h-615zM1169 819l-108 -614h-205l109 614h204zM276 410l-34 -205h-205l35 205h204zM819 0h-614l37 205h614z" />
    <glyph glyph-name="T" unicode="T" 
d="M1241 1229h-410l-217 -1229h-204l217 1229h-410l35 205h1024z" />
    <glyph glyph-name="U" unicode="U" 
d="M37 205l215 1229h205l-215 -1229h-205zM1276 1434l-215 -1229h-205l215 1229h205zM819 0h-614l37 205h614z" />
    <glyph glyph-name="V" unicode="V" 
d="M109 614l143 820h205l-144 -820h-204zM1276 1434l-143 -820h-205l143 820h205zM446 205h-204l71 409h205zM928 614l-72 -409h-205l72 409h205zM446 205h205l-37 -205h-204z" />
    <glyph glyph-name="W" unicode="W" 
d="M481 410l-35 -205h-204l-37 -205h-205l252 1434h205l-181 -1024h205zM1276 1434l-252 -1434h-205l37 205h-205l35 205h205l180 1024h205zM723 614l-37 -204h-205l37 204h205z" />
    <glyph glyph-name="X" unicode="X" 
d="M457 1434l-35 -205h-205l35 205h205zM1241 1229h-205l35 205h205zM627 1229l-37 -205h-205l37 205h205zM999 1024h-204l36 205h205zM795 1024l-35 -205h-205l35 205h205zM350 819h205l-37 -205h-205zM723 614l37 205h205l-37 -205h-205zM313 614l-108 -614h-205l109 614
h204zM1133 614l-109 -614h-205l109 614h205z" />
    <glyph glyph-name="Y" unicode="Y" 
d="M457 1434l-35 -205h-205l35 205h205zM1276 1434l-35 -205h-205l35 205h205zM627 1229l-37 -205h-205l37 205h205zM831 1229h205l-37 -205h-204zM795 1024l-181 -1024h-204l180 1024h205z" />
    <glyph glyph-name="Z" unicode="Z" 
d="M1204 1024h-205l37 205h-819l35 205h1024zM795 1024h204l-34 -205h-205zM555 819h205l-37 -205h-205zM313 614h205l-37 -204h-205zM276 410l-34 -205h819l-37 -205h-1024l72 410h204z" />
    <glyph glyph-name="bracketleft" unicode="[" horiz-adv-x="819" 
d="M651 205l-37 -205h-614l252 1434h614l-35 -205h-409l-180 -1024h409z" />
    <glyph glyph-name="backslash" unicode="\" 
d="M457 1434l-35 -205h-205l35 205h205zM555 819h-205l72 410h205zM760 819l-37 -205h-205l37 205h205zM856 205h-205l72 409h205zM1061 205l-37 -205h-205l37 205h205z" />
    <glyph glyph-name="bracketright" unicode="]" horiz-adv-x="819" 
d="M614 0h-614l37 205h409l181 1024h-410l35 205h614z" />
    <glyph glyph-name="asciicircum" unicode="^" 
d="M662 1434h204l-35 -205h-204zM422 1229h205l-37 -205h-205zM831 1229h205l-37 -205h-204zM180 1024h205l-35 -205h-205zM999 1024h205l-35 -205h-204z" />
    <glyph glyph-name="underscore" unicode="_" 
d="M987 -205h-1024l37 205h1024z" />
    <glyph glyph-name="a" unicode="a" 
d="M965 819h-615l35 205h614zM1169 819l-145 -819h-819l37 205h614l35 205h-615l37 204h615l37 205h204zM276 410l-34 -205h-205l35 205h204z" />
    <glyph glyph-name="b" unicode="b" 
d="M819 0h-819l252 1434h205l-107 -615h205l-37 -205h-205l-71 -409h614zM555 819l35 205h409l-34 -205h-410zM1169 819l-108 -614h-205l109 614h204z" />
    <glyph glyph-name="c" unicode="c" 
d="M965 819h-615l35 205h614zM350 819l-108 -614h-205l108 614h205zM928 614l37 205h204l-36 -205h-205zM1061 205h-205l35 205h205zM242 205h614l-37 -205h-614z" />
    <glyph glyph-name="d" unicode="d" 
d="M1276 1434l-252 -1434h-819l37 205h614l72 409h-205l37 205h205l106 615h205zM350 819l35 205h410l-35 -205h-410zM37 205l108 614h205l-108 -614h-205z" />
    <glyph glyph-name="e" unicode="e" 
d="M385 1024h614l-34 -205h-615zM1169 819l-73 -409h-820l-34 -205h-205l108 614h205l-37 -205h615l37 205h204zM242 205h819l-37 -205h-819z" />
    <glyph glyph-name="f" unicode="f" horiz-adv-x="1024" 
d="M627 1229l35 205h409l-35 -205h-409zM627 1229l-37 -205h409l-34 -205h-410l-145 -819h-205l145 819h-205l35 205h205l37 205h205z" />
    <glyph glyph-name="g" unicode="g" 
d="M1024 0h-205l37 205h-614l34 205h615l74 409h-615l35 205h819zM276 410h-204l73 409h205zM782 -205h-819l37 205h819z" />
    <glyph glyph-name="h" unicode="h" 
d="M555 819l-37 -205h-205l-108 -614h-205l252 1434h205l-107 -615h205zM965 819h-410l35 205h409zM1169 819l-145 -819h-205l146 819h204z" />
    <glyph glyph-name="i" unicode="i" horiz-adv-x="409" 
d="M457 1434l-35 -205h-205l35 205h205zM385 1024l-180 -1024h-205l180 1024h205z" />
    <glyph glyph-name="j" unicode="j" 
d="M1276 1434l-35 -205h-205l35 205h205zM1204 1024l-180 -1024h-205l180 1024h205zM242 205l-37 -205h-205l37 205h205zM782 -205h-614l37 205h614z" />
    <glyph glyph-name="k" unicode="k" horiz-adv-x="1024" 
d="M518 614l-37 -204h-205l-71 -410h-205l252 1434h205l-144 -820h205zM965 819h-205l35 205h204zM723 614h-205l37 205h205zM446 205l35 205h205l-35 -205h-205zM614 0l37 205h205l-37 -205h-205z" />
    <glyph glyph-name="l" unicode="l" horiz-adv-x="614" 
d="M37 205l215 1229h205l-215 -1229h-205zM446 205l-36 -205h-205l37 205h204z" />
    <glyph glyph-name="m" unicode="m" 
d="M555 819h-205l-145 -819h-205l180 1024h410zM999 1024l-34 -205h-205l35 205h204zM760 819l-74 -409h-205l74 409h205zM1169 819l-145 -819h-205l146 819h204z" />
    <glyph glyph-name="n" unicode="n" 
d="M965 819h-615l-145 -819h-205l180 1024h819zM1169 819l-145 -819h-205l146 819h204z" />
    <glyph glyph-name="o" unicode="o" 
d="M385 1024h614l-34 -205h-615zM37 205l108 614h205l-108 -614h-205zM1169 819l-108 -614h-205l109 614h204zM819 0h-614l37 205h614z" />
    <glyph glyph-name="p" unicode="p" 
d="M856 205h-614l-74 -410h-205l217 1229h205l-35 -205h205l-37 -205h-205l-37 -204h615zM555 819l35 205h409l-34 -205h-410zM1169 819l-73 -409h-205l74 409h204z" />
    <glyph glyph-name="q" unicode="q" 
d="M1204 1024l-217 -1229h-205l74 410h-614l34 205h615l37 204h-205l37 205h205l34 205h205zM350 819l35 205h410l-35 -205h-410zM276 410h-204l73 409h205z" />
    <glyph glyph-name="r" unicode="r" 
d="M350 819h205l-37 -205h-205l-108 -614h-205l180 1024h205zM965 819h-410l35 205h409zM1169 819l-36 -205h-205l37 205h204z" />
    <glyph glyph-name="s" unicode="s" 
d="M385 1024h819l-35 -205h-819zM350 819l-37 -205h-204l36 205h205zM313 614h615l-37 -204h-615zM856 205l35 205h205l-35 -205h-205zM819 0h-819l37 205h819z" />
    <glyph glyph-name="t" unicode="t" horiz-adv-x="819" 
d="M242 205l108 614h-205l35 205h205l72 410h205l-72 -410h205l-35 -205h-205l-109 -614h-204zM410 0l36 205h205l-37 -205h-204z" />
    <glyph glyph-name="u" unicode="u" 
d="M37 205l143 819h205l-143 -819h-205zM1204 1024l-180 -1024h-819l37 205h614l143 819h205z" />
    <glyph glyph-name="v" unicode="v" 
d="M72 410l108 614h205l-109 -614h-204zM1204 1024l-108 -614h-205l108 614h205zM481 410l-35 -205h-204l34 205h205zM686 410h205l-35 -205h-205zM446 205h205l-37 -205h-204z" />
    <glyph glyph-name="w" unicode="w" 
d="M37 205l143 819h205l-143 -819h-205zM1204 1024l-180 -1024h-819l37 205h204l72 409h205l-72 -409h205l143 819h205z" />
    <glyph glyph-name="x" unicode="x" 
d="M180 1024h205l-35 -205h-205zM999 1024h205l-35 -205h-204zM350 819h205l-37 -205h-205zM760 819h205l-37 -205h-205zM518 614h205l-37 -204h-205zM276 410h205l-35 -205h-204zM686 410h205l-35 -205h-205zM37 205h205l-37 -205h-205zM856 205h205l-37 -205h-205z" />
    <glyph glyph-name="y" unicode="y" 
d="M72 410l108 614h205l-109 -614h-204zM1204 1024l-180 -1024h-205l37 205h-614l34 205h615l108 614h205zM782 -205h-819l37 205h819z" />
    <glyph glyph-name="z" unicode="z" 
d="M928 614h-205l37 205h-615l35 205h1024l-35 -205h-204zM686 410h-205l37 204h205zM481 410l-35 -205h615l-37 -205h-1024l37 205h205l34 205h205z" />
    <glyph glyph-name="braceleft" unicode="{" horiz-adv-x="1024" 
d="M627 1229l35 205h409l-35 -205h-409zM350 819l72 410h205l-72 -410h-205zM350 819l-37 -205h-204l36 205h205zM313 614h205l-72 -409h-204zM446 205h410l-37 -205h-409z" />
    <glyph glyph-name="bar" unicode="|" horiz-adv-x="409" 
d="M457 1434l-107 -615h-205l107 615h205zM313 614l-108 -614h-205l109 614h204z" />
    <glyph glyph-name="braceright" unicode="}" horiz-adv-x="1024" 
d="M627 1229h-410l35 205h410zM760 819h-205l72 410h204zM965 819l-37 -205h-205l37 205h205zM723 614l-72 -409h-205l72 409h205zM446 205l-36 -205h-410l37 205h409z" />
    <glyph glyph-name="asciitilde" unicode="~" horiz-adv-x="1433" 
d="M831 1229h-409l35 205h409zM1481 1434l-35 -205h-205l35 205h205zM217 1229h205l-37 -205h-205zM1241 1229l-37 -205h-409l36 205h410z" />
    <glyph glyph-name="exclamdown" unicode="&#xa1;" horiz-adv-x="409" 
d="M422 1229l-37 -205h-205l37 205h205zM350 819l-145 -819h-205l145 819h205z" />
    <glyph glyph-name="cent" unicode="&#xa2;" horiz-adv-x="1024" 
d="M350 819h205l35 205h205l-35 -205h205l-37 -205h-615zM313 614l-37 -204h-204l37 204h204zM242 205l34 205h615l-35 -205h-205l-37 -205h-204l36 205h-204z" />
    <glyph glyph-name="sterling" unicode="&#xa3;" 
d="M1036 1229h-409l35 205h409zM627 1229l-72 -410h410l-37 -205h-410l-72 -409h615l-37 -205h-1024l37 205h205l71 409h-204l36 205h205l72 410h205zM999 1024l37 205h205l-37 -205h-205z" />
    <glyph glyph-name="currency" unicode="&#xa4;" horiz-adv-x="819" 
d="M180 1024h205l-35 -205h-205zM590 1024h205l-35 -205h-205zM350 819h205l-37 -205h-205zM109 614h204l-37 -204h-204zM518 614h205l-37 -204h-205z" />
    <glyph glyph-name="section" unicode="&#xa7;" 
d="M457 1434h819l-35 -205h-819zM422 1229l-37 -205h-205l37 205h205zM385 1024h614l-34 -205h-615zM350 819l-37 -205h-204l36 205h205zM928 614l37 205h204l-36 -205h-205zM891 410h-615l37 204h615zM856 205l35 205h205l-35 -205h-205zM819 0h-819l37 205h819z" />
    <glyph glyph-name="guillemotleft" unicode="&#xab;" 
d="M590 1024h205l-35 -205h-205zM999 1024h205l-35 -205h-204zM350 819h205l-37 -205h-205zM760 819h205l-37 -205h-205zM109 614h204l-37 -204h-204zM518 614h205l-37 -204h-205zM276 410h205l-35 -205h-204zM686 410h205l-35 -205h-205zM446 205h205l-37 -205h-204z
M856 205h205l-37 -205h-205z" />
    <glyph glyph-name="logicalnot" unicode="&#xac;" 
d="M1061 205h-205l35 205h-819l37 204h1024z" />
    <glyph glyph-name="uni00AD" unicode="&#xad;" horiz-adv-x="614" 
d="M518 614h-409l36 205h410z" />
    <glyph glyph-name="registered" unicode="&#xae;" horiz-adv-x="1433" 
d="M350 819l35 205h819l-35 -205h-204l-37 -205h-205l-37 -204h-205l74 409h-205zM856 205h205l-37 -205h-819l37 205h-205l108 614h205l-74 -409h205l-35 -205h205l35 205h205zM1374 819l-108 -614h-205l108 614h205z" />
    <glyph glyph-name="plusminus" unicode="&#xb1;" 
d="M1169 819h-409l-74 -409h-205l74 409h-410l35 205h410l72 410h204l-71 -410h409zM1024 0h-1024l37 205h1024z" />
    <glyph glyph-name="paragraph" unicode="&#xb6;" horiz-adv-x="1433" 
d="M1229 0h-205l217 1229h-205l-217 -1229h-205l109 614h-410l37 205h410l71 410h-409l35 205h1024zM350 819h-205l72 410h205z" />
    <glyph glyph-name="periodcentered" unicode="&#xb7;" horiz-adv-x="614" 
d="M481 410h-409l73 409h410z" />
    <glyph glyph-name="cedilla" unicode="&#xb8;" horiz-adv-x="819" 
d="M614 0l-36 -205h-205l37 205h204zM373 -205l-35 -205h-410l35 205h410z" />
    <glyph glyph-name="guillemotright" unicode="&#xbb;" 
d="M180 1024h205l-35 -205h-205zM590 1024h205l-35 -205h-205zM350 819h205l-37 -205h-205zM760 819h205l-37 -205h-205zM518 614h205l-37 -204h-205zM928 614h205l-37 -204h-205zM276 410h205l-35 -205h-204zM686 410h205l-35 -205h-205zM37 205h205l-37 -205h-205z
M446 205h205l-37 -205h-204z" />
    <glyph glyph-name="questiondown" unicode="&#xbf;" 
d="M831 1229h-204l35 205h204zM760 819h-205l35 205h205zM518 614h-205l37 205h205zM242 205h-205l72 409h204zM1096 410l-35 -205h-205l35 205h205zM819 0h-614l37 205h614z" />
    <glyph glyph-name="Adieresis" unicode="&#xc4;" 
d="M457 1434l-35 -205h-205l35 205h205zM1241 1229h-205l35 205h205zM999 1024h-614l37 205h614zM999 1024h205l-180 -1024h-205l109 614h-615l-108 -614h-205l180 1024h205l-35 -205h615z" />
    <glyph glyph-name="Aring" unicode="&#xc5;" 
d="M831 1229h-204l35 205h204zM385 1024h614l-34 -205h-615zM1169 819l-145 -819h-205l72 410h-615l-71 -410h-205l145 819h205l-37 -205h615l37 205h204z" />
    <glyph glyph-name="AE" unicode="&#xc6;" 
d="M795 1024h204l-34 -205h-205l-109 -614h410l-37 -205h-614l145 819h-205l-145 -819h-205l217 1229h205l-37 -205h205l37 205h-205l35 205h819l-35 -205h-410z" />
    <glyph glyph-name="Ccedilla" unicode="&#xc7;" 
d="M1036 1229h-614l35 205h614zM422 1229l-180 -1024h-205l180 1024h205zM999 1024l37 205h205l-37 -205h-205zM1061 205h-205l35 205h205zM242 205h614l-37 -205h-614zM782 -205l37 205h205l-37 -205h-205zM782 -205l-34 -205h-410l35 205h409z" />
    <glyph glyph-name="Ntilde" unicode="&#xd1;" 
d="M1241 1229h-1024l35 205h1024zM555 819l-37 -205h-205l-108 -614h-205l180 1024h205l-35 -205h205zM1204 1024l-180 -1024h-205l37 205h-205l35 205h205l108 614h205zM723 614l-37 -204h-205l37 204h205z" />
    <glyph glyph-name="Oslash" unicode="&#xd8;" 
d="M457 1434h614l-35 -205h-614zM276 410l-34 -205h-205l180 1024h205l-109 -615h205l-37 -204h-205zM1241 1229l-180 -1024h-205l109 614h-205l35 205h204l37 205h205zM555 819h205l-37 -205h-205zM819 0h-614l37 205h614z" />
    <glyph glyph-name="Udieresis" unicode="&#xdc;" 
d="M422 1229h-205l35 205h205zM1276 1434l-35 -205h-205l35 205h205zM37 205l143 819h205l-143 -819h-205zM1204 1024l-143 -819h-205l143 819h205zM819 0h-614l37 205h614z" />
    <glyph glyph-name="agrave" unicode="&#xe0;" 
d="M217 1229l35 205h410l-35 -205h-410zM965 819h-615l35 205h614zM1169 819l-145 -819h-819l37 205h614l35 205h-615l37 204h615l37 205h204zM276 410l-34 -205h-205l35 205h204z" />
    <glyph glyph-name="aacute" unicode="&#xe1;" 
d="M1241 1229h-410l35 205h410zM965 819h-615l35 205h614zM965 819h204l-145 -819h-819l37 205h614l35 205h-615l37 204h615zM276 410l-34 -205h-205l35 205h204z" />
    <glyph glyph-name="acircumflex" unicode="&#xe2;" 
d="M457 1434h614l-35 -205h-614zM422 1229l-37 -205h-205l37 205h205zM999 1024l37 205h205l-37 -205h-205zM965 819h-615l35 205h614zM965 819h204l-145 -819h-819l37 205h614l35 205h-615l37 204h615zM276 410l-34 -205h-205l35 205h204z" />
    <glyph glyph-name="aring" unicode="&#xe5;" 
d="M831 1229h-204l35 205h204zM965 819h-615l35 205h614zM1169 819l-145 -819h-819l37 205h614l35 205h-615l37 204h615l37 205h204zM276 410l-34 -205h-205l35 205h204z" />
    <glyph glyph-name="ae" unicode="&#xe6;" 
d="M590 1024l-35 -205h-205l35 205h205zM965 819h-205l35 205h204zM686 410l-35 -205h410l-37 -205h-819l37 205h204l35 205h-205l37 204h205l37 205h205l-37 -205h205l-37 -204h-205zM928 614l37 205h204l-36 -205h-205zM276 410l-34 -205h-205l35 205h204z" />
    <glyph glyph-name="ccedilla" unicode="&#xe7;" 
d="M965 819h-615l35 205h614zM350 819l-108 -614h-205l108 614h205zM928 614l37 205h204l-36 -205h-205zM1061 205h-205l35 205h205zM242 205h614l-37 -205h-614zM782 -205l37 205h205l-37 -205h-205zM782 -205l-34 -205h-410l35 205h409z" />
    <glyph glyph-name="ecircumflex" unicode="&#xea;" 
d="M457 1434h614l-35 -205h-614zM422 1229l-37 -205h-205l37 205h205zM999 1024l37 205h205l-37 -205h-205zM965 819h-615l35 205h614zM965 819h204l-73 -409h-820l-34 -205h-205l108 614h205l-37 -205h615zM242 205h819l-37 -205h-819z" />
    <glyph glyph-name="edieresis" unicode="&#xeb;" 
d="M627 1229h-205l35 205h205zM1036 1229h-205l35 205h205zM385 1024h614l-34 -205h-615zM1169 819l-73 -409h-820l-34 -205h-205l108 614h205l-37 -205h615l37 205h204zM242 205h819l-37 -205h-819z" />
    <glyph glyph-name="iacute" unicode="&#xed;" horiz-adv-x="614" 
d="M627 1229h-410l35 205h410zM385 1024l-180 -1024h-205l180 1024h205z" />
    <glyph glyph-name="icircumflex" unicode="&#xee;" horiz-adv-x="819" 
d="M422 1229h-205l35 205h205zM866 1434l-35 -205h-204l35 205h204zM590 1024l-180 -1024h-205l180 1024h205z" />
    <glyph glyph-name="ntilde" unicode="&#xf1;" 
d="M1241 1229h-1024l35 205h1024zM965 819h-615l-145 -819h-205l180 1024h819zM1169 819l-145 -819h-205l146 819h204z" />
    <glyph glyph-name="ograve" unicode="&#xf2;" 
d="M217 1229l35 205h410l-35 -205h-410zM385 1024h614l-34 -205h-615zM37 205l108 614h205l-108 -614h-205zM1169 819l-108 -614h-205l109 614h204zM819 0h-614l37 205h614z" />
    <glyph glyph-name="oacute" unicode="&#xf3;" 
d="M1241 1229h-410l35 205h410zM385 1024h614l-34 -205h-615zM37 205l108 614h205l-108 -614h-205zM1169 819l-108 -614h-205l109 614h204zM819 0h-614l37 205h614z" />
    <glyph glyph-name="ocircumflex" unicode="&#xf4;" 
d="M457 1434h614l-35 -205h-614zM422 1229l-37 -205h-205l37 205h205zM999 1024l37 205h205l-37 -205h-205zM965 819h-615l35 205h614zM37 205l108 614h205l-108 -614h-205zM1169 819l-108 -614h-205l109 614h204zM819 0h-614l37 205h614z" />
    <glyph glyph-name="odieresis" unicode="&#xf6;" 
d="M627 1229h-205l35 205h205zM1036 1229h-205l35 205h205zM385 1024h614l-34 -205h-615zM37 205l108 614h205l-108 -614h-205zM1169 819l-108 -614h-205l109 614h204zM819 0h-614l37 205h614z" />
    <glyph glyph-name="divide" unicode="&#xf7;" 
d="M795 1024h-205l37 205h204zM1133 614h-1024l36 205h1024zM481 410h205l-35 -205h-205z" />
    <glyph glyph-name="oslash" unicode="&#xf8;" 
d="M1169 819l-108 -614h-205l72 409h-205l37 205h-410l35 205h614l-34 -205h204zM856 205l-37 -205h-205l-36 -205h-205l37 205h-205l37 205h-205l108 614h205l-74 -409h205l-35 -205h410zM518 614h205l-37 -204h-205z" />
    <glyph glyph-name="ugrave" unicode="&#xf9;" 
d="M217 1229l35 205h410l-35 -205h-410zM37 205l143 819h205l-143 -819h-205zM1204 1024l-180 -1024h-819l37 205h614l143 819h205z" />
    <glyph glyph-name="uacute" unicode="&#xfa;" 
d="M1241 1229h-410l35 205h410zM37 205l143 819h205l-143 -819h-205zM1204 1024l-180 -1024h-819l37 205h614l143 819h205z" />
    <glyph glyph-name="ucircumflex" unicode="&#xfb;" 
d="M1036 1229h-614l35 205h614zM217 1229h205l-37 -205h-205zM1241 1229l-37 -205h-205l37 205h205zM37 205l108 614h205l-108 -614h-205zM1169 819l-145 -819h-819l37 205h614l109 614h204z" />
    <glyph glyph-name="udieresis" unicode="&#xfc;" 
d="M627 1229h-205l35 205h205zM1036 1229h-205l35 205h205zM37 205l143 819h205l-143 -819h-205zM1204 1024l-180 -1024h-819l37 205h614l143 819h205z" />
    <glyph glyph-name="ydieresis" unicode="&#xff;" 
d="M627 1229h-205l35 205h205zM1036 1229h-205l35 205h205zM72 410l108 614h205l-109 -614h-204zM1204 1024l-180 -1024h-205l37 205h-614l34 205h615l108 614h205zM782 -205h-819l37 205h819z" />
    <glyph glyph-name="florin" unicode="&#x192;" 
d="M1071 1434l-35 -205h-205l35 205h205zM831 1229l-71 -410h205l-37 -205h-205l-72 -409h-205l72 409h-205l37 205h205l72 410h204zM1241 1229l-37 -205h-205l37 205h205zM276 410l-34 -205h-205l35 205h204zM242 205h204l-36 -205h-205z" />
    <glyph glyph-name="uni03A9" unicode="&#x3a9;" 
d="M1036 1229h-614l35 205h614zM422 1229l-146 -819h-204l145 819h205zM1241 1229l-145 -819h-205l145 819h205zM242 205l34 205h205l-71 -410h-410l37 205h205zM891 410l-35 -205h205l-37 -205h-410l72 410h205z" />
    <glyph glyph-name="emdash" unicode="&#x2014;" 
d="M1133 614h-1024l36 205h1024z" />
    <glyph glyph-name="bullet" unicode="&#x2022;" horiz-adv-x="614" 
d="M481 410h-409l73 409h410z" />
    <glyph glyph-name="summation" unicode="&#x2211;" 
d="M1204 1024h-205l37 205h-614l-37 -205h-205l72 410h1024zM350 819l35 205h205l-35 -205h-205zM518 614l37 205h205l-37 -205h-205zM313 614h205l-37 -204h-205zM276 410l-34 -205h614l35 205h205l-72 -410h-1024l72 410h204z" />
    <glyph glyph-name="radical" unicode="&#x221a;" horiz-adv-x="1843" 
d="M1855 1229h-409l-217 -1229h-615l37 205h-205l35 205h-205l37 204h-204l36 205h615l-74 -409h205l180 1024h819z" />
    <glyph glyph-name="infinity" unicode="&#x221e;" horiz-adv-x="1638" 
d="M350 819l35 205h410l-35 -205h-410zM965 819l34 205h410l-35 -205h-409zM276 410h-204l73 409h205zM891 410h-205l74 409h205zM1579 819l-74 -409h-205l74 409h205zM686 410l-35 -205h-409l34 205h410zM1300 410l-34 -205h-410l35 205h409z" />
    <glyph glyph-name="approxequal" unicode="&#x2248;" horiz-adv-x="1638" 
d="M1614 1024h-205l-35 -205h-614l35 205h-205l-35 -205h-410l35 205h205l37 205h614l-37 -205h205l37 205h410zM1542 614l-37 -204h-205l-34 -205h-615l35 205h-205l-35 -205h-409l35 205h204l37 204h615l-37 -204h205l37 204h409z" />
    <glyph glyph-name="house" unicode="&#x2302;" 
d="M760 819h-205l35 205h205zM518 614h-205l37 205h205zM723 614l37 205h205l-37 -205h-205zM1133 614l-109 -614h-1024l109 614h204l-71 -409h614l72 409h205z" />
    <glyph glyph-name="smileface" unicode="&#x263a;" horiz-adv-x="1843" 
d="M457 1434h1229l-35 -205h-1229zM0 0l217 1229h205l-217 -1229h-205zM1855 1229l-217 -1229h-204l217 1229h204zM760 819h-205l35 205h205zM1204 1024h205l-35 -205h-205zM1300 410h-204l-35 -205h-410l35 205h-205l37 204h819zM1397 -205h-1229l37 205h1229z" />
    <glyph glyph-name="invsmileface" unicode="&#x263b;" horiz-adv-x="1843" 
d="M1855 1229l-217 -1229h-204l-37 -205h-1229l37 205h-205l217 1229h205l35 205h1229l-35 -205h204zM555 819h205l35 205h-205zM1409 1024h-205l-35 -205h205zM1337 614h-819l-37 -204h205l-35 -205h410l35 205h204z" />
    <glyph glyph-name="sun" unicode="&#x263c;" horiz-adv-x="1843" 
d="M1409 1024l-35 -205h410l-74 -409h-410l-34 -205h-205l-74 -410h-409l73 410h-205l35 205h-409l73 409h410l35 205h205l71 410h410l-72 -410h205zM457 1434l-35 -205h-205l35 205h205zM1855 1229h-204l35 205h204zM627 1229l-37 -205h-205l37 205h205zM1614 1024h-205
l37 205h205zM760 819l-74 -409h410l73 409h-409zM242 205h204l-36 -205h-205zM1229 0l37 205h204l-36 -205h-205zM0 0h205l-37 -205h-205zM1397 -205l37 205h204l-36 -205h-205z" />
    <glyph glyph-name="female" unicode="&#x2640;" 
d="M457 1434h614l-35 -205h-614zM109 614l108 615h205l-109 -615h-204zM1241 1229l-108 -615h-205l108 615h205zM891 410h-205l-35 -205h205l-37 -205h-205l-36 -205h-205l37 205h-205l37 205h204l35 205h-205l37 204h615z" />
    <glyph glyph-name="male" unicode="&#x2642;" horiz-adv-x="1638" 
d="M1579 819h-205l35 205h-205l37 205h-205l35 205h615zM999 1024h205l-35 -205h-204zM928 614h-615l37 205h615zM0 0l109 614h204l-108 -614h-205zM1133 614l-109 -614h-205l109 614h205zM782 -205h-614l37 205h614z" />
    <glyph glyph-name="spade" unicode="&#x2660;" horiz-adv-x="1638" 
d="M1542 614l-37 -204h-205l-34 -205h-205l-37 -205h205l-37 -205h-1024l37 205h205l36 205h-204l34 205h-204l37 204h204l37 205h205l35 205h205l71 410h205l-72 -410h205l-35 -205h205l-37 -205h205z" />
    <glyph glyph-name="club" unicode="&#x2663;" horiz-adv-x="1638" 
d="M1505 410h-205l-34 -205h-205l-37 -205h205l-37 -205h-1024l37 205h205l36 205h-204l34 205h-204l73 409h410l35 205h-205l37 205h205l35 205h614l-35 -205h205l-37 -205h-205l-35 -205h410z" />
    <glyph glyph-name="heart" unicode="&#x2665;" horiz-adv-x="1638" 
d="M1651 1229l-109 -615h-205l-37 -204h-204l-35 -205h-205l-37 -205h-205l37 205h-205l35 205h-205l37 204h-204l108 615h205l35 205h409l-35 -205h205l35 205h410l-35 -205h205z" />
    <glyph glyph-name="diamond" unicode="&#x2666;" horiz-adv-x="1638" 
d="M1579 819l-37 -205h-205l-37 -204h-204l-35 -205h-205l-37 -205h-205l37 205h-205l35 205h-205l37 204h-204l36 205h205l35 205h205l37 205h204l35 205h205l-35 -205h205l-37 -205h205l-35 -205h205z" />
  </font>
</defs>
</svg>
