<svg width="67" height="51" viewBox="0 0 67 51" fill="none" xmlns="http://www.w3.org/2000/svg">
<g clip-path="url(#clip0_225_52)">
<path d="M55.9704 4.39119C51.6293 2.37873 47.0465 0.951017 42.339 0.144531C41.6948 1.31059 41.1119 2.51031 40.5928 3.73867C35.5784 2.97354 30.4791 2.97354 25.4647 3.73867C24.9453 2.51044 24.3624 1.31073 23.7185 0.144531C19.008 0.957827 14.4222 2.38893 10.0767 4.40171C1.44988 17.3259 -0.888717 29.929 0.280582 42.3533C5.33267 46.1329 10.9874 49.0075 16.999 50.8519C18.3526 49.0084 19.5504 47.0526 20.5796 45.0055C18.6247 44.2661 16.7379 43.354 14.941 42.2796C15.4139 41.9323 15.8764 41.5745 16.3234 41.2271C21.5519 43.717 27.2586 45.0079 33.0365 45.0079C38.8144 45.0079 44.5211 43.717 49.7497 41.2271C50.2018 41.6008 50.6644 41.9586 51.1321 42.2796C49.3317 43.3557 47.4414 44.2696 45.4831 45.0107C46.5111 47.057 47.7089 49.011 49.0637 50.8519C55.0804 49.0149 60.7395 46.1417 65.7925 42.3585C67.1645 27.9504 63.4487 15.463 55.9704 4.39119ZM22.0607 34.7124C18.8023 34.7124 16.1103 31.7182 16.1103 28.0346C16.1103 24.351 18.7087 21.3305 22.0503 21.3305C25.3919 21.3305 28.0631 24.351 28.006 28.0346C27.9488 31.7182 25.3815 34.7124 22.0607 34.7124ZM44.0124 34.7124C40.7487 34.7124 38.0671 31.7182 38.0671 28.0346C38.0671 24.351 40.6656 21.3305 44.0124 21.3305C47.3591 21.3305 50.0096 24.351 49.9524 28.0346C49.8952 31.7182 47.3332 34.7124 44.0124 34.7124Z" fill="white"/>
</g>
<defs>
<clipPath id="clip0_225_52">
<rect width="66.0732" height="50.7073" fill="white" transform="translate(0 0.144531)"/>
</clipPath>
</defs>
</svg>
