<svg width="54" height="41" viewBox="0 0 54 41" fill="none" xmlns="http://www.w3.org/2000/svg">
<g clip-path="url(#clip0_8_96)">
<path d="M45.7432 3.43369C42.1954 1.80648 38.4499 0.652093 34.6026 0C34.0761 0.942831 33.5998 1.91288 33.1755 2.90608C29.0774 2.28743 24.9098 2.28743 20.8117 2.90608C20.3872 1.91298 19.9108 0.942945 19.3846 0C15.5348 0.6576 11.7869 1.81473 8.23545 3.4422C1.18495 13.8922 -0.726327 24.0826 0.229313 34.1284C4.35826 37.1845 8.97973 39.5087 13.8928 41C14.9991 39.5094 15.978 37.9281 16.8192 36.2728C15.2215 35.675 13.6795 34.9375 12.2109 34.0688C12.5974 33.788 12.9754 33.4986 13.3407 33.2178C17.6139 35.231 22.2778 36.2748 27 36.2748C31.7221 36.2748 36.3861 35.231 40.6592 33.2178C41.0287 33.5199 41.4068 33.8093 41.789 34.0688C40.3176 34.9389 38.7727 35.6779 37.1722 36.2771C38.0123 37.9316 38.9913 39.5116 40.0986 41C45.0159 39.5147 49.6409 37.1916 53.7706 34.1326C54.8919 22.4828 51.8551 12.3859 45.7432 3.43369ZM18.0297 27.9503C15.3666 27.9503 13.1665 25.5293 13.1665 22.5509C13.1665 19.5724 15.2902 17.1301 18.0212 17.1301C20.7522 17.1301 22.9353 19.5724 22.8886 22.5509C22.8419 25.5293 20.7437 27.9503 18.0297 27.9503ZM35.9702 27.9503C33.3029 27.9503 31.1113 25.5293 31.1113 22.5509C31.1113 19.5724 33.235 17.1301 35.9702 17.1301C38.7055 17.1301 40.8716 19.5724 40.8249 22.5509C40.7782 25.5293 38.6842 27.9503 35.9702 27.9503Z" fill="#BDA4FF"/>
</g>
<defs>
<clipPath id="clip0_8_96">
<rect width="54" height="41" fill="white"/>
</clipPath>
</defs>
</svg>
