<svg width="315" height="296" viewBox="0 0 315 296" fill="none" xmlns="http://www.w3.org/2000/svg">
<path d="M58.4719 7.57813C60.3203 5.41712 62.6149 3.68218 65.1978 2.49267C67.7807 1.30316 70.5907 0.687313 73.4344 0.6875H241.566C244.409 0.687313 247.219 1.30316 249.802 2.49267C252.385 3.68218 254.68 5.41712 256.528 7.57813L307.893 67.5069C312.479 72.8586 315 79.674 315 86.7219V91.7422C315.001 101.487 311.957 110.989 306.295 118.919C300.632 126.85 292.632 132.813 283.415 135.975C274.197 139.137 264.222 139.34 254.883 136.556C245.545 133.772 237.309 128.14 231.328 120.447C226.96 126.073 221.363 130.625 214.965 133.754C208.566 136.883 201.537 138.506 194.414 138.5C187.291 138.508 180.261 136.885 173.863 133.756C167.464 130.626 161.867 126.074 157.5 120.447C153.133 126.074 147.536 130.626 141.137 133.756C134.739 136.885 127.709 138.508 120.586 138.5C113.463 138.508 106.433 136.885 100.034 133.756C93.6359 130.626 88.0387 126.074 83.6719 120.447C77.6906 128.14 69.4552 133.772 60.1165 136.556C50.7778 139.34 40.8027 139.137 31.5851 135.975C22.3676 132.813 14.3684 126.85 8.70546 118.919C3.04254 110.989 -0.00107491 101.487 2.84771e-07 91.7422V86.7219C0.000248211 79.674 2.52111 72.8586 7.10719 67.5069L58.4916 7.55844L58.4719 7.57813ZM93.5156 91.7422C93.5156 98.9217 96.3677 105.807 101.444 110.884C106.521 115.96 113.406 118.812 120.586 118.812C127.765 118.812 134.651 115.96 139.728 110.884C144.804 105.807 147.656 98.9217 147.656 91.7422C147.656 89.1315 148.693 86.6277 150.539 84.7816C152.385 82.9355 154.889 81.8984 157.5 81.8984C160.111 81.8984 162.615 82.9355 164.461 84.7816C166.307 86.6277 167.344 89.1315 167.344 91.7422C167.344 98.9217 170.196 105.807 175.272 110.884C180.349 115.96 187.235 118.812 194.414 118.812C201.594 118.812 208.479 115.96 213.556 110.884C218.632 105.807 221.484 98.9217 221.484 91.7422C221.484 89.1315 222.521 86.6277 224.368 84.7816C226.214 82.9355 228.717 81.8984 231.328 81.8984C233.939 81.8984 236.443 82.9355 238.289 84.7816C240.135 86.6277 241.172 89.1315 241.172 91.7422C241.172 98.9217 244.024 105.807 249.101 110.884C254.177 115.96 261.063 118.812 268.242 118.812C275.422 118.812 282.307 115.96 287.384 110.884C292.46 105.807 295.312 98.9217 295.312 91.7422V86.7219C295.313 84.3757 294.475 82.1066 292.95 80.3234L241.566 20.375H73.4344L22.05 80.3234C20.5251 82.1066 19.6873 84.3757 19.6875 86.7219V91.7422C19.6875 98.9217 22.5395 105.807 27.6162 110.884C32.6929 115.96 39.5783 118.812 46.7578 118.812C53.9373 118.812 60.8227 115.96 65.8994 110.884C70.9761 105.807 73.8281 98.9217 73.8281 91.7422C73.8281 89.1315 74.8652 86.6277 76.7113 84.7816C78.5574 82.9355 81.0612 81.8984 83.6719 81.8984C86.2826 81.8984 88.7864 82.9355 90.6325 84.7816C92.4785 86.6277 93.5156 89.1315 93.5156 91.7422ZM29.5312 148.344C32.142 148.344 34.6458 149.381 36.4918 151.227C38.3379 153.073 39.375 155.577 39.375 158.188V276.312H275.625V158.188C275.625 155.577 276.662 153.073 278.508 151.227C280.354 149.381 282.858 148.344 285.469 148.344C288.079 148.344 290.583 149.381 292.429 151.227C294.275 153.073 295.312 155.577 295.312 158.188V276.312H305.156C307.767 276.312 310.271 277.35 312.117 279.196C313.963 281.042 315 283.546 315 286.156C315 288.767 313.963 291.271 312.117 293.117C310.271 294.963 307.767 296 305.156 296H9.84375C7.23303 296 4.72923 294.963 2.88317 293.117C1.03711 291.271 2.84771e-07 288.767 2.84771e-07 286.156C2.84771e-07 283.546 1.03711 281.042 2.88317 279.196C4.72923 277.35 7.23303 276.312 9.84375 276.312H19.6875V158.188C19.6875 155.577 20.7246 153.073 22.5707 151.227C24.4167 149.381 26.9205 148.344 29.5312 148.344ZM68.9062 158.188C71.517 158.188 74.0208 159.225 75.8668 161.071C77.7129 162.917 78.75 165.421 78.75 168.031V236.938H236.25V168.031C236.25 165.421 237.287 162.917 239.133 161.071C240.979 159.225 243.483 158.188 246.094 158.188C248.704 158.188 251.208 159.225 253.054 161.071C254.9 162.917 255.938 165.421 255.938 168.031V236.938C255.938 242.159 253.863 247.167 250.171 250.859C246.479 254.551 241.471 256.625 236.25 256.625H78.75C73.5286 256.625 68.521 254.551 64.8288 250.859C61.1367 247.167 59.0625 242.159 59.0625 236.938V168.031C59.0625 165.421 60.0996 162.917 61.9457 161.071C63.7917 159.225 66.2955 158.188 68.9062 158.188Z" fill="white"/>
</svg>
