<svg width="36" height="41" viewBox="0 0 36 41" fill="none" xmlns="http://www.w3.org/2000/svg">
<path d="M31.5169 8.76844C31.2365 8.62542 30.9636 8.46863 30.6992 8.29867C29.9301 7.79683 29.2251 7.20552 28.5991 6.53747C27.0329 4.76857 26.448 2.97406 26.2325 1.71764H26.2412C26.0612 0.674758 26.1356 0 26.1468 0H19.0133V27.2278C19.0133 27.5933 19.0133 27.9546 18.9977 28.3116C18.9977 28.3561 18.9934 28.3971 18.9908 28.4449C18.9908 28.4645 18.9908 28.485 18.9865 28.5055C18.9865 28.5107 18.9865 28.5158 18.9865 28.5209C18.9113 29.4978 18.594 30.4416 18.0626 31.269C17.5312 32.0965 16.8019 32.7824 15.9389 33.2664C15.0395 33.7715 14.0222 34.0365 12.9874 34.0351C9.66376 34.0351 6.97008 31.36 6.97008 28.0563C6.97008 24.7525 9.66376 22.0774 12.9874 22.0774C13.6165 22.0768 14.2418 22.1745 14.84 22.3669L14.8486 15.1974C13.0327 14.9659 11.1878 15.1083 9.43045 15.6158C7.67307 16.1233 6.04131 16.9847 4.6381 18.1459C3.40857 19.2004 2.37489 20.4586 1.58359 21.8639C1.28247 22.3763 0.146332 24.4356 0.00874979 27.7778C-0.0777801 29.6748 0.499374 31.6402 0.774539 32.4524V32.4695C0.947599 32.9478 1.61821 34.5801 2.71108 35.9561C3.59233 37.0598 4.6335 38.0294 5.80106 38.8336V38.8165L5.81837 38.8336C9.27178 41.15 13.1007 40.998 13.1007 40.998C13.7635 40.9715 15.9839 40.998 18.5054 39.8184C21.302 38.5107 22.8942 36.5625 22.8942 36.5625C23.9113 35.3984 24.7201 34.0717 25.2859 32.6395C25.9314 30.9646 26.1468 28.9557 26.1468 28.1528V13.7078C26.2334 13.7591 27.386 14.5116 27.386 14.5116C27.386 14.5116 29.0465 15.5621 31.6372 16.2463C33.4958 16.7331 36 16.8356 36 16.8356V9.84549C35.1226 9.93944 33.3409 9.66612 31.5169 8.76844Z" fill="#BDA4FF"/>
</svg>
