<svg width="51" height="42" viewBox="0 0 51 42" fill="none" xmlns="http://www.w3.org/2000/svg">
<path d="M49.2836 4.76463C48.4914 5.11599 47.6769 5.41253 46.8447 5.65327C47.83 4.53901 48.5812 3.22793 49.0397 1.79322C49.1425 1.47163 49.036 1.11963 48.7717 0.909299C48.5077 0.69881 48.1409 0.673597 47.8502 0.84586C46.0828 1.89408 44.176 2.64738 42.1767 3.08788C40.1628 1.11995 37.4274 0 34.5996 0C28.6306 0 23.7744 4.85605 23.7744 10.8249C23.7744 11.295 23.8042 11.7625 23.863 12.2235C16.4561 11.5732 9.56996 7.93254 4.84128 2.13205C4.67276 1.92531 4.41315 1.81388 4.14735 1.83519C3.88139 1.85601 3.64244 2.00599 3.50808 2.23649C2.549 3.88217 2.04197 5.76437 2.04197 7.67943C2.04197 10.2878 2.97323 12.7626 4.61827 14.6963C4.11807 14.5231 3.63268 14.3066 3.16941 14.0494C2.92069 13.911 2.61716 13.9131 2.37007 14.0548C2.12282 14.1965 1.9678 14.457 1.96129 14.7419C1.96015 14.7899 1.96015 14.8378 1.96015 14.8865C1.96015 18.7799 4.05561 22.2852 7.2593 24.1957C6.98407 24.1682 6.709 24.1283 6.43573 24.0761C6.15399 24.0223 5.86428 24.121 5.67429 24.3359C5.48397 24.5506 5.42102 24.8499 5.5087 25.1232C6.69453 28.8254 9.74759 31.5486 13.4385 32.3789C10.3773 34.2962 6.87655 35.3005 3.20161 35.3005C2.43481 35.3005 1.66361 35.2554 0.908846 35.1661C0.533902 35.1216 0.175388 35.3429 0.0476955 35.6995C-0.0799969 36.0562 0.0553407 36.454 0.374328 36.6584C5.09536 39.6855 10.5543 41.2854 16.1605 41.2854C27.1817 41.2854 34.0763 36.0883 37.9193 31.7284C42.7114 26.2919 45.4598 19.0961 45.4598 11.9862C45.4598 11.6891 45.4552 11.3892 45.4461 11.0902C47.3368 9.66574 48.9646 7.94181 50.2892 5.96038C50.4904 5.65945 50.4686 5.26174 50.2355 4.98472C50.0027 4.70753 49.6148 4.61791 49.2836 4.76463Z" fill="#BDA4FF"/>
</svg>
