<svg width="60" height="42" viewBox="0 0 60 42" fill="none" xmlns="http://www.w3.org/2000/svg">
<path d="M58.0957 6.44675C57.4132 3.9092 55.4028 1.91078 52.8495 1.23257C48.2226 0 29.6677 0 29.6677 0C29.6677 0 11.113 0 6.48587 1.23257C3.93258 1.91078 1.92166 3.9092 1.23973 6.44675C0 11.0461 0 20.6427 0 20.6427C0 20.6427 0 30.2388 1.23973 34.8387C1.92166 37.3765 3.93258 39.3744 6.48562 40.0534C11.1128 41.2854 29.6675 41.2854 29.6675 41.2854C29.6675 41.2854 48.2224 41.2854 52.8493 40.0534C55.4026 39.3747 57.413 37.3765 58.0954 34.8389C59.3354 30.2391 59.3354 20.643 59.3354 20.643C59.3354 20.643 59.3354 11.0464 58.0954 6.447" fill="#BDA4FF"/>
<path d="M23.3999 29.4312L39.2784 20.6432L23.3999 11.8542V29.4312Z" fill="black"/>
</svg>
